<svg width="360" height="250" viewBox="0 0 360 250" fill="none" xmlns="http://www.w3.org/2000/svg">
<rect width="360" height="250" fill="white"/>
<line x1="217.606" y1="146.743" x2="59.7245" y2="89.2789" stroke="#BBBBBB" stroke-width="12" stroke-linecap="round"/>
<line x1="323.098" y1="96.9736" x2="217.387" y2="146.267" stroke="#BBBBBB" stroke-width="12" stroke-linecap="round"/>
<line x1="31.708" y1="228.419" x2="86.9969" y2="76.5145" stroke="#BBBBBB" stroke-width="12" stroke-linecap="round"/>
<line x1="36.9088" y1="210.294" x2="18.3551" y2="203.541" stroke="#BBBBBB" stroke-width="8" stroke-linecap="round"/>
<line x1="144.861" y1="186.424" x2="62.4026" y2="156.411" stroke="#BBBBBB" stroke-width="8" stroke-linecap="round"/>
<line x1="234.901" y1="155.314" x2="215.363" y2="148.203" stroke="#BBBBBB" stroke-width="8" stroke-linecap="round"/>
<line x1="194.824" y1="139.971" x2="145.654" y2="186.176" stroke="#BBBBBB" stroke-width="8" stroke-linecap="round"/>
<line x1="139.609" y1="110.475" x2="167.914" y2="32.7081" stroke="#BBBBBB" stroke-width="8" stroke-linecap="round"/>
<line x1="180.946" y1="127.997" x2="210.578" y2="46.5841" stroke="#BBBBBB" stroke-width="8" stroke-linecap="round"/>
<line x1="299.057" y1="112.7" x2="324.11" y2="164.066" stroke="#BBBBBB" stroke-width="8" stroke-linecap="round"/>
<line x1="14.5058" y1="221.328" x2="21.2452" y2="202.811" stroke="#BBBBBB" stroke-width="5" stroke-linecap="round"/>
<line x1="85.9803" y1="162.973" x2="106.621" y2="106.262" stroke="#BBBBBB" stroke-width="5" stroke-linecap="round"/>
<line x1="115.506" y1="171.906" x2="134.946" y2="118.494" stroke="#BBBBBB" stroke-width="5" stroke-linecap="round"/>
<line x1="179.68" y1="105.822" x2="149.61" y2="94.8769" stroke="#BBBBBB" stroke-width="5" stroke-linecap="round"/>
<line x1="170.785" y1="100.9" x2="179.749" y2="76.2697" stroke="#BBBBBB" stroke-width="5" stroke-linecap="round"/>
<line x1="164.426" y1="79.7672" x2="167.426" y2="71.5228" stroke="#BBBBBB" stroke-width="5" stroke-linecap="round"/>
<line x1="173.189" y1="69.6279" x2="180.113" y2="50.6048" stroke="#BBBBBB" stroke-width="5" stroke-linecap="round"/>
<line x1="187.802" y1="78.4779" x2="163.353" y2="69.5795" stroke="#BBBBBB" stroke-width="5" stroke-linecap="round"/>
<line x1="204.75" y1="58.6228" x2="175.567" y2="48.0009" stroke="#BBBBBB" stroke-width="5" stroke-linecap="round"/>
<line x1="117.999" y1="163.169" x2="90.5089" y2="153.164" stroke="#BBBBBB" stroke-width="5" stroke-linecap="round"/>
<line x1="175.69" y1="152.79" x2="130.45" y2="136.324" stroke="#BBBBBB" stroke-width="5" stroke-linecap="round"/>
<line x1="317.201" y1="159.433" x2="219.271" y2="205.099" stroke="#BBBBBB" stroke-width="5" stroke-linecap="round"/>
<line x1="305.008" y1="134.012" x2="267.464" y2="151.519" stroke="#BBBBBB" stroke-width="5" stroke-linecap="round"/>
<line x1="276.939" y1="132.378" x2="293.928" y2="168.811" stroke="#BBBBBB" stroke-width="5" stroke-linecap="round"/>
<line x1="244.904" y1="130.831" x2="198.302" y2="84.2294" stroke="#BBBBBB" stroke-width="5" stroke-linecap="round"/>
<line x1="207" y1="114.503" x2="216.503" y2="105" stroke="#BBBBBB" stroke-width="5" stroke-linecap="round"/>
<line x1="216.419" y1="210.764" x2="236.523" y2="155.529" stroke="#BBBBBB" stroke-width="5" stroke-linecap="round"/>
<line x1="219.017" y1="129.552" x2="201" y2="111.536" stroke="#BBBBBB" stroke-width="5" stroke-linecap="round"/>
<line x1="198.769" y1="82.4778" x2="185.578" y2="77.5312" stroke="#BBBBBB" stroke-width="3" stroke-linecap="round" stroke-dasharray="0.1 6"/>
<path d="M14.5 221.5L20.5 204.5L38 211L58.5 155.5L85.5 165L92 146.5L90.5 153.5L119 163.5L128.5 135L145 141.5" stroke="#D05EA9" stroke-width="6" stroke-linecap="round" stroke-linejoin="round"/>
<path d="M14.5 221.5L20.5 204.5L38 210.5L79.5 96.5L137 117.5L146 93.5L180 106L170.5 101.5L180 76L193.5 80.5L200 86L218 104L205.5 116L217.5 128" stroke="#D05EA9" stroke-width="6" stroke-linecap="round" stroke-linejoin="round"/>
<path d="M14.5 221.5L20.5 204.5L38 210.5L58.5 155.5L145 186L194.5 140.5L236 156L218 206L273 180L294.5 170L282.5 144.5L287.5 142.5" stroke="#D05EA9" stroke-width="6" stroke-linecap="round" stroke-linejoin="round"/>
<path d="M80.8625 137.345C81.7609 141.655 89.5 152 89.5 152C89.5 152 97.2392 141.655 98.1375 137.345C99.0358 133.034 95.9681 127 89.5 127C83.0319 127 79.9641 133.034 80.8625 137.345Z" fill="#A4EDBA"/>
<path d="M89.5 150.306C89.3751 150.133 89.2381 149.942 89.0909 149.736C88.3564 148.706 87.3689 147.289 86.3546 145.741C85.339 144.19 84.3041 142.519 83.4708 140.978C82.6241 139.411 82.0342 138.066 81.8415 137.141C81.453 135.277 81.9207 132.973 83.2324 131.137C84.5222 129.333 86.6127 128 89.5 128C92.3873 128 94.4778 129.333 95.7675 131.137C97.0792 132.973 97.547 135.277 97.1585 137.141C96.9658 138.066 96.3759 139.411 95.5292 140.978C94.6959 142.519 93.661 144.19 92.6454 145.741C91.6311 147.289 90.6435 148.706 89.9091 149.736C89.7618 149.942 89.6249 150.133 89.5 150.306Z" stroke="black" stroke-opacity="0.45" stroke-width="2"/>
<path d="M135.862 130.345C136.761 134.655 144.5 145 144.5 145C144.5 145 152.239 134.655 153.137 130.345C154.036 126.034 150.968 120 144.5 120C138.032 120 134.964 126.034 135.862 130.345Z" fill="#A4EDBA"/>
<path d="M144.5 143.306C144.375 143.133 144.238 142.942 144.091 142.736C143.356 141.706 142.369 140.289 141.355 138.741C140.339 137.19 139.304 135.519 138.471 133.978C137.624 132.411 137.034 131.066 136.841 130.141C136.453 128.277 136.921 125.973 138.232 124.137C139.522 122.333 141.613 121 144.5 121C147.387 121 149.478 122.333 150.768 124.137C152.079 125.973 152.547 128.277 152.159 130.141C151.966 131.066 151.376 132.411 150.529 133.978C149.696 135.519 148.661 137.19 147.645 138.741C146.631 140.289 145.644 141.706 144.909 142.736C144.762 142.942 144.625 143.133 144.5 143.306Z" stroke="black" stroke-opacity="0.45" stroke-width="2"/>
<path d="M175.862 95.3448C176.761 99.6552 184.5 110 184.5 110C184.5 110 192.239 99.6552 193.137 95.3448C194.036 91.0345 190.968 85 184.5 85C178.032 85 174.964 91.0345 175.862 95.3448Z" fill="#A4EDBA"/>
<path d="M184.5 108.306C184.375 108.133 184.238 107.942 184.091 107.736C183.356 106.706 182.369 105.289 181.355 103.741C180.339 102.19 179.304 100.519 178.471 98.9776C177.624 97.4113 177.034 96.0656 176.841 95.1408C176.453 93.2769 176.921 90.9729 178.232 89.1375C179.522 87.3327 181.613 86 184.5 86C187.387 86 189.478 87.3327 190.768 89.1375C192.079 90.9729 192.547 93.2769 192.159 95.1408C191.966 96.0656 191.376 97.4113 190.529 98.9776C189.696 100.519 188.661 102.19 187.645 103.741C186.631 105.289 185.644 106.706 184.909 107.736C184.762 107.942 184.625 108.133 184.5 108.306Z" stroke="black" stroke-opacity="0.45" stroke-width="2"/>
<path d="M209.862 113.345C210.761 117.655 218.5 128 218.5 128C218.5 128 226.239 117.655 227.137 113.345C228.036 109.034 224.968 103 218.5 103C212.032 103 208.964 109.034 209.862 113.345Z" fill="#A4EDBA"/>
<path d="M218.5 126.306C218.375 126.133 218.238 125.942 218.091 125.736C217.356 124.706 216.369 123.289 215.355 121.741C214.339 120.19 213.304 118.519 212.471 116.978C211.624 115.411 211.034 114.066 210.841 113.141C210.453 111.277 210.921 108.973 212.232 107.137C213.522 105.333 215.613 104 218.5 104C221.387 104 223.478 105.333 224.768 107.137C226.079 108.973 226.547 111.277 226.159 113.141C225.966 114.066 225.376 115.411 224.529 116.978C223.696 118.519 222.661 120.19 221.645 121.741C220.631 123.289 219.644 124.706 218.909 125.736C218.762 125.942 218.625 126.133 218.5 126.306Z" stroke="black" stroke-opacity="0.45" stroke-width="2"/>
<path d="M278.862 128.345C279.761 132.655 287.5 143 287.5 143C287.5 143 295.239 132.655 296.137 128.345C297.036 124.034 293.968 118 287.5 118C281.032 118 277.964 124.034 278.862 128.345Z" fill="#A4EDBA"/>
<path d="M287.5 141.306C287.375 141.133 287.238 140.942 287.091 140.736C286.356 139.706 285.369 138.289 284.355 136.741C283.339 135.19 282.304 133.519 281.471 131.978C280.624 130.411 280.034 129.066 279.841 128.141C279.453 126.277 279.921 123.973 281.232 122.137C282.522 120.333 284.613 119 287.5 119C290.387 119 292.478 120.333 293.768 122.137C295.079 123.973 295.547 126.277 295.159 128.141C294.966 129.066 294.376 130.411 293.529 131.978C292.696 133.519 291.661 135.19 290.645 136.741C289.631 138.289 288.644 139.706 287.909 140.736C287.762 140.942 287.625 141.133 287.5 141.306Z" stroke="black" stroke-opacity="0.45" stroke-width="2"/>
<path d="M263.862 165.345C264.761 169.655 272.5 180 272.5 180C272.5 180 280.239 169.655 281.137 165.345C282.036 161.034 278.968 155 272.5 155C266.032 155 262.964 161.034 263.862 165.345Z" fill="#A4EDBA"/>
<path d="M272.5 178.306C272.375 178.133 272.238 177.942 272.091 177.736C271.356 176.706 270.369 175.289 269.355 173.741C268.339 172.19 267.304 170.519 266.471 168.978C265.624 167.411 265.034 166.066 264.841 165.141C264.453 163.277 264.921 160.973 266.232 159.137C267.522 157.333 269.613 156 272.5 156C275.387 156 277.478 157.333 278.768 159.137C280.079 160.973 280.547 163.277 280.159 165.141C279.966 166.066 279.376 167.411 278.529 168.978C277.696 170.519 276.661 172.19 275.645 173.741C274.631 175.289 273.644 176.706 272.909 177.736C272.762 177.942 272.625 178.133 272.5 178.306Z" stroke="black" stroke-opacity="0.45" stroke-width="2"/>
</svg>
