<svg width="360" height="250" viewBox="0 0 360 250" fill="none" xmlns="http://www.w3.org/2000/svg">
<rect width="360" height="250" fill="white"/>
<line x1="217.606" y1="146.743" x2="59.7244" y2="89.2789" stroke="#BBBBBB" stroke-width="12" stroke-linecap="round"/>
<line x1="323.098" y1="96.9736" x2="217.387" y2="146.267" stroke="#BBBBBB" stroke-width="12" stroke-linecap="round"/>
<line x1="31.708" y1="228.419" x2="86.9969" y2="76.5145" stroke="#BBBBBB" stroke-width="12" stroke-linecap="round"/>
<line x1="36.9088" y1="210.294" x2="18.3551" y2="203.541" stroke="#BBBBBB" stroke-width="8" stroke-linecap="round"/>
<line x1="144.861" y1="186.424" x2="62.4026" y2="156.411" stroke="#BBBBBB" stroke-width="8" stroke-linecap="round"/>
<line x1="234.901" y1="155.314" x2="215.363" y2="148.203" stroke="#BBBBBB" stroke-width="8" stroke-linecap="round"/>
<line x1="194.824" y1="139.971" x2="145.654" y2="186.176" stroke="#BBBBBB" stroke-width="8" stroke-linecap="round"/>
<line x1="139.609" y1="110.475" x2="167.914" y2="32.7081" stroke="#BBBBBB" stroke-width="8" stroke-linecap="round"/>
<line x1="180.946" y1="127.997" x2="210.578" y2="46.5841" stroke="#BBBBBB" stroke-width="8" stroke-linecap="round"/>
<line x1="299.057" y1="112.7" x2="324.11" y2="164.066" stroke="#BBBBBB" stroke-width="8" stroke-linecap="round"/>
<line x1="14.5058" y1="221.328" x2="21.2452" y2="202.811" stroke="#BBBBBB" stroke-width="5" stroke-linecap="round"/>
<line x1="85.9803" y1="162.973" x2="106.621" y2="106.262" stroke="#BBBBBB" stroke-width="5" stroke-linecap="round"/>
<line x1="115.506" y1="171.906" x2="134.946" y2="118.494" stroke="#BBBBBB" stroke-width="5" stroke-linecap="round"/>
<line x1="179.68" y1="105.822" x2="149.61" y2="94.8769" stroke="#BBBBBB" stroke-width="5" stroke-linecap="round"/>
<line x1="170.785" y1="100.9" x2="179.749" y2="76.2697" stroke="#BBBBBB" stroke-width="5" stroke-linecap="round"/>
<line x1="164.426" y1="79.7672" x2="167.426" y2="71.5228" stroke="#BBBBBB" stroke-width="5" stroke-linecap="round"/>
<line x1="173.189" y1="69.6279" x2="180.113" y2="50.6048" stroke="#BBBBBB" stroke-width="5" stroke-linecap="round"/>
<line x1="187.802" y1="78.4779" x2="163.353" y2="69.5795" stroke="#BBBBBB" stroke-width="5" stroke-linecap="round"/>
<line x1="204.75" y1="58.6228" x2="175.567" y2="48.0009" stroke="#BBBBBB" stroke-width="5" stroke-linecap="round"/>
<line x1="117.999" y1="163.169" x2="90.5089" y2="153.164" stroke="#BBBBBB" stroke-width="5" stroke-linecap="round"/>
<line x1="175.69" y1="152.79" x2="130.45" y2="136.324" stroke="#BBBBBB" stroke-width="5" stroke-linecap="round"/>
<line x1="317.201" y1="159.433" x2="219.271" y2="205.099" stroke="#BBBBBB" stroke-width="5" stroke-linecap="round"/>
<line x1="305.008" y1="134.012" x2="267.464" y2="151.519" stroke="#BBBBBB" stroke-width="5" stroke-linecap="round"/>
<line x1="276.939" y1="132.378" x2="293.928" y2="168.811" stroke="#BBBBBB" stroke-width="5" stroke-linecap="round"/>
<line x1="244.904" y1="130.831" x2="198.302" y2="84.2294" stroke="#BBBBBB" stroke-width="5" stroke-linecap="round"/>
<line x1="207" y1="114.503" x2="216.503" y2="105" stroke="#BBBBBB" stroke-width="5" stroke-linecap="round"/>
<line x1="216.419" y1="210.764" x2="236.523" y2="155.529" stroke="#BBBBBB" stroke-width="5" stroke-linecap="round"/>
<line x1="219.017" y1="129.552" x2="201" y2="111.536" stroke="#BBBBBB" stroke-width="5" stroke-linecap="round"/>
<line x1="198.769" y1="82.4778" x2="185.578" y2="77.5312" stroke="#BBBBBB" stroke-width="3" stroke-linecap="round" stroke-dasharray="0.1 6"/>
</svg>
