<svg width="360" height="250" viewBox="0 0 360 250" fill="none" xmlns="http://www.w3.org/2000/svg">
<rect width="360" height="250" fill="white"/>
<path d="M181 126.5C248 59.1667 315 59.1667 315 126.5C315 193.833 248 193.833 181 126.5ZM181 126.5C114 59.1667 47 59.1667 47 126.5C47 193.833 114 193.833 181 126.5Z" stroke="#60C17D" stroke-width="11" stroke-linecap="round" stroke-linejoin="round"/>
<rect x="180.64" y="62" width="90" height="90" transform="rotate(45 180.64 62)" fill="white"/>
<path d="M80.5137 32H75.4551L70.2402 21.9414H70.1523C70.1849 22.2474 70.2142 22.6152 70.2402 23.0449C70.2663 23.4746 70.2891 23.9141 70.3086 24.3633C70.3281 24.806 70.3379 25.2064 70.3379 25.5645V32H66.9199V17.7227H71.959L77.1543 27.6445H77.2129C77.1934 27.332 77.1738 26.9707 77.1543 26.5605C77.1348 26.1439 77.1152 25.724 77.0957 25.3008C77.0827 24.8776 77.0762 24.5033 77.0762 24.1777V17.7227H80.5137V32ZM88.3555 20.7402C89.4297 20.7402 90.3574 20.929 91.1387 21.3066C91.9199 21.6777 92.5221 22.2376 92.9453 22.9863C93.3685 23.735 93.5801 24.6725 93.5801 25.7988V27.498H86.7539C86.7865 28.0775 87.0013 28.5527 87.3984 28.9238C87.8021 29.2949 88.3945 29.4805 89.1758 29.4805C89.8659 29.4805 90.4974 29.4121 91.0703 29.2754C91.6497 29.1387 92.2454 28.9271 92.8574 28.6406V31.3848C92.3236 31.6647 91.7409 31.8698 91.1094 32C90.4779 32.1302 89.6803 32.1953 88.7168 32.1953C87.6035 32.1953 86.6074 31.9967 85.7285 31.5996C84.8496 31.2025 84.1562 30.5872 83.6484 29.7539C83.1471 28.9206 82.8965 27.8496 82.8965 26.541C82.8965 25.2129 83.1243 24.1224 83.5801 23.2695C84.0358 22.4102 84.6738 21.7754 85.4941 21.3652C86.3145 20.9486 87.2682 20.7402 88.3555 20.7402ZM88.4922 23.3379C88.043 23.3379 87.6654 23.4811 87.3594 23.7676C87.0599 24.0475 86.8841 24.4902 86.832 25.0957H90.1133C90.1068 24.7702 90.0417 24.474 89.918 24.207C89.7943 23.9401 89.612 23.7285 89.3711 23.5723C89.1367 23.416 88.8438 23.3379 88.4922 23.3379ZM105.26 32L104.098 27.1562C104.039 26.9089 103.98 26.6289 103.922 26.3164C103.863 25.9974 103.805 25.6784 103.746 25.3594C103.694 25.0404 103.648 24.7474 103.609 24.4805C103.57 24.2135 103.541 24.0052 103.521 23.8555H103.463C103.443 24.0052 103.411 24.2168 103.365 24.4902C103.32 24.7572 103.268 25.0534 103.209 25.3789C103.15 25.7044 103.085 26.0365 103.014 26.375C102.949 26.707 102.883 27.0163 102.818 27.3027L101.695 32H97.6816L94.6641 20.9355H98.4238L99.3223 25.1836C99.3874 25.4961 99.4525 25.8704 99.5176 26.3066C99.5892 26.7363 99.651 27.1758 99.7031 27.625C99.7617 28.0677 99.8008 28.4648 99.8203 28.8164H99.8789C99.8919 28.5495 99.9212 28.2435 99.9668 27.8984C100.019 27.5469 100.074 27.1986 100.133 26.8535C100.198 26.5085 100.257 26.2057 100.309 25.9453C100.361 25.6784 100.396 25.4961 100.416 25.3984L101.441 20.9355H105.66L106.598 25.457C106.656 25.7109 106.721 26.0365 106.793 26.4336C106.871 26.8242 106.943 27.2344 107.008 27.6641C107.079 28.0872 107.132 28.4714 107.164 28.8164H107.223C107.249 28.4583 107.288 28.0514 107.34 27.5957C107.392 27.14 107.451 26.6973 107.516 26.2676C107.587 25.8314 107.656 25.4701 107.721 25.1836L108.697 20.9355H112.379L109.342 32H105.26ZM48.4434 40.7227H53.4238C55.4876 40.7227 56.959 41.0286 57.8379 41.6406C58.7168 42.2526 59.1562 43.1315 59.1562 44.2773C59.1562 44.9023 59.0423 45.4329 58.8145 45.8691C58.5931 46.3053 58.3099 46.6504 57.9648 46.9043C57.6263 47.1582 57.278 47.3307 56.9199 47.4219V47.5195C57.3105 47.6172 57.6979 47.7799 58.082 48.0078C58.4727 48.2292 58.7949 48.5645 59.0488 49.0137C59.3092 49.4564 59.4395 50.0586 59.4395 50.8203C59.4395 51.6862 59.2181 52.4316 58.7754 53.0566C58.3392 53.6816 57.7142 54.1634 56.9004 54.502C56.0866 54.834 55.1198 55 54 55H48.4434V40.7227ZM52.3008 46.2012H53.4629C54.1009 46.2012 54.5501 46.071 54.8105 45.8105C55.071 45.5436 55.2012 45.2214 55.2012 44.8438C55.2012 44.4531 55.0514 44.1569 54.752 43.9551C54.459 43.7467 54.0033 43.6426 53.3848 43.6426H52.3008V46.2012ZM52.3008 49.0234V52.0215H53.6582C54.3288 52.0215 54.7975 51.8783 55.0645 51.5918C55.3314 51.2988 55.4648 50.9342 55.4648 50.498C55.4648 50.2441 55.4062 50.0065 55.2891 49.7852C55.1784 49.5573 54.9863 49.375 54.7129 49.2383C54.4395 49.0951 54.0618 49.0234 53.5801 49.0234H52.3008ZM72.2617 49.4434C72.2617 50.3678 72.1348 51.1882 71.8809 51.9043C71.627 52.6204 71.2591 53.2227 70.7773 53.7109C70.2956 54.1992 69.7129 54.5703 69.0293 54.8242C68.3457 55.0716 67.5742 55.1953 66.7148 55.1953C65.9141 55.1953 65.1784 55.0716 64.5078 54.8242C63.8438 54.5703 63.2643 54.1992 62.7695 53.7109C62.2747 53.2227 61.8906 52.6204 61.6172 51.9043C61.3503 51.1882 61.2168 50.3678 61.2168 49.4434C61.2168 48.2194 61.4382 47.1842 61.8809 46.3379C62.3301 45.4915 62.9681 44.847 63.7949 44.4043C64.6283 43.9616 65.6211 43.7402 66.7734 43.7402C67.8346 43.7402 68.7786 43.9616 69.6055 44.4043C70.4323 44.847 71.0801 45.4915 71.5488 46.3379C72.0241 47.1842 72.2617 48.2194 72.2617 49.4434ZM65.0938 49.4434C65.0938 50.0749 65.1491 50.6087 65.2598 51.0449C65.3704 51.4746 65.5462 51.8034 65.7871 52.0312C66.0345 52.2526 66.3568 52.3633 66.7539 52.3633C67.151 52.3633 67.4668 52.2526 67.7012 52.0312C67.9355 51.8034 68.1048 51.4746 68.209 51.0449C68.3197 50.6087 68.375 50.0749 68.375 49.4434C68.375 48.8118 68.3197 48.2845 68.209 47.8613C68.1048 47.4382 67.9323 47.1191 67.6914 46.9043C67.457 46.6895 67.138 46.582 66.7344 46.582C66.1549 46.582 65.735 46.8229 65.4746 47.3047C65.2207 47.7865 65.0938 48.4993 65.0938 49.4434ZM85.0156 49.4434C85.0156 50.3678 84.8887 51.1882 84.6348 51.9043C84.3809 52.6204 84.013 53.2227 83.5312 53.7109C83.0495 54.1992 82.4668 54.5703 81.7832 54.8242C81.0996 55.0716 80.3281 55.1953 79.4688 55.1953C78.668 55.1953 77.9323 55.0716 77.2617 54.8242C76.5977 54.5703 76.0182 54.1992 75.5234 53.7109C75.0286 53.2227 74.6445 52.6204 74.3711 51.9043C74.1042 51.1882 73.9707 50.3678 73.9707 49.4434C73.9707 48.2194 74.1921 47.1842 74.6348 46.3379C75.084 45.4915 75.722 44.847 76.5488 44.4043C77.3822 43.9616 78.375 43.7402 79.5273 43.7402C80.5885 43.7402 81.5326 43.9616 82.3594 44.4043C83.1862 44.847 83.834 45.4915 84.3027 46.3379C84.778 47.1842 85.0156 48.2194 85.0156 49.4434ZM77.8477 49.4434C77.8477 50.0749 77.903 50.6087 78.0137 51.0449C78.1243 51.4746 78.3001 51.8034 78.541 52.0312C78.7884 52.2526 79.1107 52.3633 79.5078 52.3633C79.9049 52.3633 80.2207 52.2526 80.4551 52.0312C80.6895 51.8034 80.8587 51.4746 80.9629 51.0449C81.0736 50.6087 81.1289 50.0749 81.1289 49.4434C81.1289 48.8118 81.0736 48.2845 80.9629 47.8613C80.8587 47.4382 80.6862 47.1191 80.4453 46.9043C80.2109 46.6895 79.8919 46.582 79.4883 46.582C78.9089 46.582 78.4889 46.8229 78.2285 47.3047C77.9746 47.7865 77.8477 48.4993 77.8477 49.4434ZM91.041 39.8047V45.7812C91.041 46.2305 91.0215 46.7318 90.9824 47.2852C90.9499 47.832 90.8978 48.3301 90.8262 48.7793H90.9043C91.054 48.5514 91.2428 48.265 91.4707 47.9199C91.6986 47.5749 91.9036 47.2884 92.0859 47.0605L94.5664 43.9355H98.8242L94.9863 48.6426L99.0684 55H94.7031L92.2812 51.0352L91.041 51.9824V55H87.2031V39.8047H91.041ZM104.225 43.9355V55H100.406V43.9355H104.225ZM102.33 39.4824C102.877 39.4824 103.352 39.5964 103.756 39.8242C104.166 40.0521 104.371 40.5046 104.371 41.1816C104.371 41.8392 104.166 42.2852 103.756 42.5195C103.352 42.7474 102.877 42.8613 102.33 42.8613C101.77 42.8613 101.292 42.7474 100.895 42.5195C100.504 42.2852 100.309 41.8392 100.309 41.1816C100.309 40.5046 100.504 40.0521 100.895 39.8242C101.292 39.5964 101.77 39.4824 102.33 39.4824ZM113.814 43.7402C114.954 43.7402 115.885 44.0625 116.607 44.707C117.33 45.3516 117.691 46.3835 117.691 47.8027V55H113.873V48.9648C113.873 48.2292 113.766 47.6758 113.551 47.3047C113.342 46.9271 113.004 46.7383 112.535 46.7383C111.812 46.7383 111.327 47.0345 111.08 47.627C110.833 48.2129 110.709 49.056 110.709 50.1562V55H106.891V43.9355H109.771L110.289 45.4004H110.436C110.67 45.0488 110.95 44.7493 111.275 44.502C111.601 44.2546 111.975 44.0658 112.398 43.9355C112.822 43.8053 113.294 43.7402 113.814 43.7402ZM124.068 59.8047C122.499 59.8047 121.288 59.541 120.436 59.0137C119.589 58.4928 119.166 57.7409 119.166 56.7578C119.166 56.1003 119.371 55.5566 119.781 55.127C120.191 54.6973 120.807 54.388 121.627 54.1992C121.288 54.056 120.992 53.8249 120.738 53.5059C120.491 53.1868 120.367 52.8711 120.367 52.5586C120.367 52.2135 120.462 51.9108 120.65 51.6504C120.839 51.3835 121.233 51.0677 121.832 50.7031C121.259 50.4492 120.807 50.0521 120.475 49.5117C120.149 48.9714 119.986 48.3138 119.986 47.5391C119.986 46.7383 120.169 46.0547 120.533 45.4883C120.904 44.9219 121.441 44.4889 122.145 44.1895C122.854 43.89 123.717 43.7402 124.732 43.7402C124.869 43.7402 125.077 43.7533 125.357 43.7793C125.637 43.7988 125.921 43.8249 126.207 43.8574C126.493 43.8835 126.715 43.9095 126.871 43.9355H130.729V45.7812L129.215 46.3379C129.319 46.5267 129.397 46.7318 129.449 46.9531C129.501 47.1745 129.527 47.4089 129.527 47.6562C129.527 48.8477 129.107 49.7721 128.268 50.4297C127.434 51.0872 126.188 51.416 124.527 51.416C124.117 51.416 123.792 51.39 123.551 51.3379C123.505 51.4225 123.469 51.5072 123.443 51.5918C123.424 51.6699 123.414 51.7448 123.414 51.8164C123.414 51.9661 123.502 52.0866 123.678 52.1777C123.86 52.2624 124.078 52.321 124.332 52.3535C124.592 52.3861 124.84 52.4023 125.074 52.4023H126.91C128.154 52.4023 129.085 52.6628 129.703 53.1836C130.322 53.7044 130.631 54.4889 130.631 55.5371C130.631 56.8848 130.055 57.9329 128.902 58.6816C127.757 59.4303 126.145 59.8047 124.068 59.8047ZM124.254 57.4219C124.716 57.4219 125.182 57.3796 125.65 57.2949C126.119 57.2168 126.513 57.0866 126.832 56.9043C127.151 56.722 127.311 56.4811 127.311 56.1816C127.311 55.9538 127.216 55.7812 127.027 55.6641C126.839 55.5534 126.594 55.4785 126.295 55.4395C125.995 55.4004 125.68 55.3809 125.348 55.3809H123.863C123.59 55.3809 123.339 55.4232 123.111 55.5078C122.89 55.599 122.714 55.7194 122.584 55.8691C122.454 56.0189 122.389 56.1882 122.389 56.377C122.389 56.6895 122.558 56.9401 122.896 57.1289C123.235 57.3242 123.688 57.4219 124.254 57.4219ZM124.771 49.2578C125.136 49.2578 125.416 49.1178 125.611 48.8379C125.813 48.5579 125.914 48.138 125.914 47.5781C125.914 47.0052 125.82 46.5755 125.631 46.2891C125.442 46.0026 125.156 45.8594 124.771 45.8594C124.374 45.8594 124.078 46.0026 123.883 46.2891C123.688 46.569 123.59 46.9922 123.59 47.5586C123.59 48.125 123.688 48.5514 123.883 48.8379C124.078 49.1178 124.374 49.2578 124.771 49.2578Z" fill="#60C17D"/>
<path d="M76.3574 221H67.8809V206.723H76.3574V209.818H71.7383V212.064H76.0156V215.16H71.7383V217.855H76.3574V221ZM85.1562 221H81.2988V209.877H77.8125V206.723H88.6328V209.877H85.1562V221ZM99.4336 221L98.7305 218.324H94.0918L93.3691 221H89.1309L93.7891 206.664H98.9355L103.652 221H99.4336ZM97.9297 215.16L97.3145 212.816C97.2493 212.562 97.1549 212.201 97.0312 211.732C96.9076 211.257 96.7839 210.769 96.6602 210.268C96.543 209.76 96.4518 209.343 96.3867 209.018C96.3281 209.343 96.2435 209.747 96.1328 210.229C96.0286 210.704 95.918 211.176 95.8008 211.645C95.6901 212.113 95.5924 212.504 95.5078 212.816L94.8926 215.16H97.9297Z" fill="#60C17D"/>
<path d="M256.887 195.723C258.182 195.723 259.26 195.882 260.119 196.201C260.979 196.514 261.623 196.982 262.053 197.607C262.489 198.232 262.707 199.01 262.707 199.941C262.707 200.521 262.609 201.048 262.414 201.523C262.219 201.999 261.939 202.425 261.574 202.803C261.216 203.174 260.786 203.499 260.285 203.779L264.445 210H260.07L257.043 204.805H256.066V210H252.209V195.723H256.887ZM256.828 198.643H256.066V201.904H256.789C257.382 201.904 257.867 201.774 258.244 201.514C258.622 201.253 258.811 200.788 258.811 200.117C258.811 199.655 258.654 199.294 258.342 199.033C258.029 198.773 257.525 198.643 256.828 198.643ZM269.357 198.936V210H265.539V198.936H269.357ZM267.463 194.482C268.01 194.482 268.485 194.596 268.889 194.824C269.299 195.052 269.504 195.505 269.504 196.182C269.504 196.839 269.299 197.285 268.889 197.52C268.485 197.747 268.01 197.861 267.463 197.861C266.903 197.861 266.424 197.747 266.027 197.52C265.637 197.285 265.441 196.839 265.441 196.182C265.441 195.505 265.637 195.052 266.027 194.824C266.424 194.596 266.903 194.482 267.463 194.482ZM275.461 210.195C274.322 210.195 273.384 209.71 272.648 208.74C271.913 207.77 271.545 206.351 271.545 204.482C271.545 202.594 271.923 201.165 272.678 200.195C273.433 199.225 274.41 198.74 275.607 198.74C276.102 198.74 276.529 198.812 276.887 198.955C277.245 199.098 277.554 199.294 277.814 199.541C278.081 199.782 278.312 200.055 278.508 200.361H278.586C278.54 200.081 278.498 199.697 278.459 199.209C278.42 198.714 278.4 198.232 278.4 197.764V194.805H282.248V210H279.367L278.547 208.604H278.4C278.225 208.896 278.003 209.163 277.736 209.404C277.476 209.645 277.157 209.837 276.779 209.98C276.408 210.124 275.969 210.195 275.461 210.195ZM277.023 207.178C277.635 207.178 278.065 206.986 278.312 206.602C278.566 206.211 278.703 205.618 278.723 204.824V204.521C278.723 203.649 278.599 202.982 278.352 202.52C278.111 202.051 277.655 201.816 276.984 201.816C276.529 201.816 276.151 202.038 275.852 202.48C275.552 202.923 275.402 203.61 275.402 204.541C275.402 205.459 275.552 206.13 275.852 206.553C276.158 206.969 276.548 207.178 277.023 207.178ZM289.875 198.74C290.949 198.74 291.877 198.929 292.658 199.307C293.439 199.678 294.042 200.238 294.465 200.986C294.888 201.735 295.1 202.673 295.1 203.799V205.498H288.273C288.306 206.077 288.521 206.553 288.918 206.924C289.322 207.295 289.914 207.48 290.695 207.48C291.385 207.48 292.017 207.412 292.59 207.275C293.169 207.139 293.765 206.927 294.377 206.641V209.385C293.843 209.665 293.26 209.87 292.629 210C291.997 210.13 291.2 210.195 290.236 210.195C289.123 210.195 288.127 209.997 287.248 209.6C286.369 209.202 285.676 208.587 285.168 207.754C284.667 206.921 284.416 205.85 284.416 204.541C284.416 203.213 284.644 202.122 285.1 201.27C285.555 200.41 286.193 199.775 287.014 199.365C287.834 198.949 288.788 198.74 289.875 198.74ZM290.012 201.338C289.562 201.338 289.185 201.481 288.879 201.768C288.579 202.048 288.404 202.49 288.352 203.096H291.633C291.626 202.77 291.561 202.474 291.438 202.207C291.314 201.94 291.132 201.729 290.891 201.572C290.656 201.416 290.363 201.338 290.012 201.338ZM303.938 198.74C304.146 198.74 304.364 198.757 304.592 198.789C304.82 198.815 304.989 198.838 305.1 198.857L304.758 202.461C304.634 202.428 304.475 202.402 304.279 202.383C304.084 202.357 303.811 202.344 303.459 202.344C303.218 202.344 302.961 202.367 302.688 202.412C302.414 202.458 302.154 202.555 301.906 202.705C301.665 202.848 301.467 203.07 301.311 203.369C301.154 203.662 301.076 204.059 301.076 204.561V210H297.258V198.936H300.1L300.695 200.703H300.881C301.083 200.339 301.34 200.01 301.652 199.717C301.971 199.417 302.326 199.18 302.717 199.004C303.114 198.828 303.521 198.74 303.938 198.74ZM264.426 228.664C264.426 229.439 264.23 230.174 263.84 230.871C263.449 231.561 262.84 232.121 262.014 232.551C261.193 232.98 260.132 233.195 258.83 233.195C258.179 233.195 257.606 233.166 257.111 233.107C256.623 233.049 256.167 232.954 255.744 232.824C255.321 232.688 254.882 232.512 254.426 232.297V228.859C255.201 229.25 255.982 229.549 256.77 229.758C257.557 229.96 258.27 230.061 258.908 230.061C259.292 230.061 259.605 230.015 259.846 229.924C260.093 229.833 260.275 229.709 260.393 229.553C260.51 229.39 260.568 229.204 260.568 228.996C260.568 228.749 260.48 228.54 260.305 228.371C260.135 228.195 259.862 228.013 259.484 227.824C259.107 227.635 258.609 227.401 257.99 227.121C257.463 226.874 256.984 226.62 256.555 226.359C256.132 226.099 255.767 225.803 255.461 225.471C255.161 225.132 254.93 224.738 254.768 224.289C254.605 223.84 254.523 223.309 254.523 222.697C254.523 221.779 254.748 221.011 255.197 220.393C255.653 219.768 256.285 219.299 257.092 218.986C257.906 218.674 258.843 218.518 259.904 218.518C260.835 218.518 261.672 218.622 262.414 218.83C263.163 219.038 263.833 219.276 264.426 219.543L263.244 222.521C262.632 222.242 262.03 222.02 261.438 221.857C260.845 221.688 260.295 221.604 259.787 221.604C259.455 221.604 259.182 221.646 258.967 221.73C258.758 221.809 258.602 221.916 258.498 222.053C258.4 222.189 258.352 222.346 258.352 222.521C258.352 222.743 258.436 222.941 258.605 223.117C258.781 223.293 259.071 223.485 259.475 223.693C259.885 223.895 260.441 224.159 261.145 224.484C261.841 224.797 262.434 225.135 262.922 225.5C263.41 225.858 263.781 226.291 264.035 226.799C264.296 227.3 264.426 227.922 264.426 228.664ZM270.227 217.805V219.963C270.227 220.783 270.207 221.473 270.168 222.033C270.135 222.587 270.103 223.01 270.07 223.303H270.246C270.487 222.919 270.76 222.613 271.066 222.385C271.372 222.157 271.711 221.994 272.082 221.896C272.453 221.792 272.857 221.74 273.293 221.74C274.022 221.74 274.68 221.88 275.266 222.16C275.858 222.44 276.33 222.88 276.682 223.479C277.033 224.071 277.209 224.846 277.209 225.803V233H273.371V226.965C273.371 226.229 273.264 225.676 273.049 225.305C272.834 224.927 272.502 224.738 272.053 224.738C271.59 224.738 271.226 224.872 270.959 225.139C270.692 225.399 270.503 225.783 270.393 226.291C270.282 226.792 270.227 227.408 270.227 228.137V233H266.408V217.805H270.227ZM283.645 221.936V233H279.826V221.936H283.645ZM281.75 217.482C282.297 217.482 282.772 217.596 283.176 217.824C283.586 218.052 283.791 218.505 283.791 219.182C283.791 219.839 283.586 220.285 283.176 220.52C282.772 220.747 282.297 220.861 281.75 220.861C281.19 220.861 280.712 220.747 280.314 220.52C279.924 220.285 279.729 219.839 279.729 219.182C279.729 218.505 279.924 218.052 280.314 217.824C280.712 217.596 281.19 217.482 281.75 217.482ZM293.068 224.797H290.715V233H286.896V224.797H285.432V222.922L286.975 221.984V221.799C286.975 220.842 287.102 220.064 287.355 219.465C287.609 218.859 288.013 218.413 288.566 218.127C289.12 217.84 289.842 217.697 290.734 217.697C291.307 217.697 291.825 217.743 292.287 217.834C292.756 217.925 293.244 218.055 293.752 218.225L292.932 220.695C292.743 220.643 292.531 220.598 292.297 220.559C292.069 220.52 291.822 220.5 291.555 220.5C291.262 220.5 291.047 220.591 290.91 220.773C290.78 220.949 290.715 221.239 290.715 221.643V221.936H293.068V224.797ZM299.992 230.178C300.337 230.178 300.653 230.142 300.939 230.07C301.226 229.999 301.525 229.908 301.838 229.797V232.58C301.421 232.762 300.979 232.909 300.51 233.02C300.048 233.137 299.455 233.195 298.732 233.195C298.016 233.195 297.385 233.085 296.838 232.863C296.291 232.635 295.865 232.245 295.559 231.691C295.259 231.132 295.109 230.354 295.109 229.357V224.797H293.771V223.244L295.471 222.043L296.457 219.719H298.957V221.936H301.672V224.797H298.957V229.104C298.957 229.462 299.048 229.732 299.23 229.914C299.413 230.09 299.667 230.178 299.992 230.178Z" fill="#60C17D"/>
<path d="M244.557 24.5586C244.557 26.2188 244.247 27.599 243.629 28.6992C243.01 29.7995 242.138 30.6263 241.012 31.1797C239.892 31.7266 238.574 32 237.057 32H232.438V17.7227H237.379C238.915 17.7227 240.217 17.9863 241.285 18.5137C242.353 19.041 243.163 19.8125 243.717 20.8281C244.277 21.8438 244.557 23.0872 244.557 24.5586ZM240.553 24.6953C240.553 23.8294 240.436 23.1133 240.201 22.5469C239.973 21.974 239.628 21.5475 239.166 21.2676C238.704 20.9811 238.121 20.8379 237.418 20.8379H236.295V28.8359H237.154C238.326 28.8359 239.186 28.4974 239.732 27.8203C240.279 27.1367 240.553 26.0951 240.553 24.6953ZM251.881 20.7402C252.955 20.7402 253.883 20.929 254.664 21.3066C255.445 21.6777 256.048 22.2376 256.471 22.9863C256.894 23.735 257.105 24.6725 257.105 25.7988V27.498H250.279C250.312 28.0775 250.527 28.5527 250.924 28.9238C251.327 29.2949 251.92 29.4805 252.701 29.4805C253.391 29.4805 254.023 29.4121 254.596 29.2754C255.175 29.1387 255.771 28.9271 256.383 28.6406V31.3848C255.849 31.6647 255.266 31.8698 254.635 32C254.003 32.1302 253.206 32.1953 252.242 32.1953C251.129 32.1953 250.133 31.9967 249.254 31.5996C248.375 31.2025 247.682 30.5872 247.174 29.7539C246.673 28.9206 246.422 27.8496 246.422 26.541C246.422 25.2129 246.65 24.1224 247.105 23.2695C247.561 22.4102 248.199 21.7754 249.02 21.3652C249.84 20.9486 250.794 20.7402 251.881 20.7402ZM252.018 23.3379C251.568 23.3379 251.191 23.4811 250.885 23.7676C250.585 24.0475 250.41 24.4902 250.357 25.0957H253.639C253.632 24.7702 253.567 24.474 253.443 24.207C253.32 23.9401 253.137 23.7285 252.896 23.5723C252.662 23.416 252.369 23.3379 252.018 23.3379ZM263.082 32H259.264V16.8047H263.082V32ZM269.566 20.9355V32H265.748V20.9355H269.566ZM267.672 16.4824C268.219 16.4824 268.694 16.5964 269.098 16.8242C269.508 17.0521 269.713 17.5046 269.713 18.1816C269.713 18.8392 269.508 19.2852 269.098 19.5195C268.694 19.7474 268.219 19.8613 267.672 19.8613C267.112 19.8613 266.633 19.7474 266.236 19.5195C265.846 19.2852 265.65 18.8392 265.65 18.1816C265.65 17.5046 265.846 17.0521 266.236 16.8242C266.633 16.5964 267.112 16.4824 267.672 16.4824ZM275.133 32L270.914 20.9355H274.898L276.773 27.4785C276.793 27.5371 276.826 27.6868 276.871 27.9277C276.923 28.1686 276.949 28.3932 276.949 28.6016H277.018C277.018 28.3802 277.04 28.1686 277.086 27.9668C277.132 27.765 277.167 27.6087 277.193 27.498L279.156 20.9355H283.131L278.912 32H275.133ZM289.439 20.7402C290.514 20.7402 291.441 20.929 292.223 21.3066C293.004 21.6777 293.606 22.2376 294.029 22.9863C294.452 23.735 294.664 24.6725 294.664 25.7988V27.498H287.838C287.87 28.0775 288.085 28.5527 288.482 28.9238C288.886 29.2949 289.479 29.4805 290.26 29.4805C290.95 29.4805 291.581 29.4121 292.154 29.2754C292.734 29.1387 293.329 28.9271 293.941 28.6406V31.3848C293.408 31.6647 292.825 31.8698 292.193 32C291.562 32.1302 290.764 32.1953 289.801 32.1953C288.688 32.1953 287.691 31.9967 286.812 31.5996C285.934 31.2025 285.24 30.5872 284.732 29.7539C284.231 28.9206 283.98 27.8496 283.98 26.541C283.98 25.2129 284.208 24.1224 284.664 23.2695C285.12 22.4102 285.758 21.7754 286.578 21.3652C287.398 20.9486 288.352 20.7402 289.439 20.7402ZM289.576 23.3379C289.127 23.3379 288.749 23.4811 288.443 23.7676C288.144 24.0475 287.968 24.4902 287.916 25.0957H291.197C291.191 24.7702 291.126 24.474 291.002 24.207C290.878 23.9401 290.696 23.7285 290.455 23.5723C290.221 23.416 289.928 23.3379 289.576 23.3379ZM303.502 20.7402C303.71 20.7402 303.928 20.7565 304.156 20.7891C304.384 20.8151 304.553 20.8379 304.664 20.8574L304.322 24.4609C304.199 24.4284 304.039 24.4023 303.844 24.3828C303.648 24.3568 303.375 24.3438 303.023 24.3438C302.783 24.3438 302.525 24.3665 302.252 24.4121C301.979 24.4577 301.718 24.5553 301.471 24.7051C301.23 24.8483 301.031 25.0697 300.875 25.3691C300.719 25.6621 300.641 26.0592 300.641 26.5605V32H296.822V20.9355H299.664L300.26 22.7031H300.445C300.647 22.3385 300.904 22.0098 301.217 21.7168C301.536 21.4173 301.891 21.1797 302.281 21.0039C302.678 20.8281 303.085 20.7402 303.502 20.7402ZM304.879 20.9355H308.902L310.777 27.2832C310.803 27.3743 310.829 27.4883 310.855 27.625C310.882 27.7552 310.904 27.8952 310.924 28.0449C310.943 28.1947 310.956 28.3411 310.963 28.4844H311.041C311.074 28.2174 311.109 27.9863 311.148 27.791C311.194 27.5892 311.236 27.4264 311.275 27.3027L313.199 20.9355H317.096L312.721 32.7031C312.382 33.6016 311.988 34.3535 311.539 34.959C311.096 35.571 310.546 36.0299 309.889 36.3359C309.238 36.6484 308.427 36.8047 307.457 36.8047C307.105 36.8047 306.803 36.7852 306.549 36.7461C306.301 36.7135 306.083 36.6777 305.895 36.6387V33.6406C306.038 33.6667 306.214 33.6927 306.422 33.7188C306.63 33.7448 306.848 33.7578 307.076 33.7578C307.499 33.7578 307.841 33.6732 308.102 33.5039C308.368 33.3346 308.587 33.11 308.756 32.8301C308.925 32.5566 309.072 32.2604 309.195 31.9414L309.234 31.8438L304.879 20.9355ZM252.223 40.7227L248.707 55H244.146L242.779 48.7793C242.753 48.6621 242.711 48.4635 242.652 48.1836C242.6 47.9036 242.538 47.5846 242.467 47.2266C242.402 46.8685 242.34 46.5169 242.281 46.1719C242.229 45.8203 242.19 45.5241 242.164 45.2832C242.138 45.5241 242.096 45.8203 242.037 46.1719C241.979 46.5169 241.913 46.8685 241.842 47.2266C241.777 47.5846 241.712 47.9036 241.646 48.1836C241.588 48.4635 241.546 48.6621 241.52 48.7793L240.143 55H235.582L232.047 40.7227H235.768L237.32 47.8809C237.359 48.0566 237.411 48.3073 237.477 48.6328C237.548 48.9518 237.62 49.3034 237.691 49.6875C237.77 50.0651 237.841 50.4297 237.906 50.7812C237.971 51.1328 238.017 51.4258 238.043 51.6602C238.095 51.2565 238.163 50.7975 238.248 50.2832C238.339 49.7689 238.437 49.248 238.541 48.7207C238.652 48.1868 238.756 47.6921 238.854 47.2363C238.951 46.7806 239.036 46.4095 239.107 46.123L240.367 40.7227H243.941L245.162 46.123C245.227 46.403 245.309 46.7741 245.406 47.2363C245.51 47.6921 245.615 48.1868 245.719 48.7207C245.829 49.2546 245.93 49.7819 246.021 50.3027C246.113 50.8171 246.181 51.2695 246.227 51.6602C246.266 51.3346 246.331 50.9245 246.422 50.4297C246.513 49.9284 246.604 49.4434 246.695 48.9746C246.793 48.4993 246.868 48.1413 246.92 47.9004L248.502 40.7227H252.223ZM257.682 43.9355V55H253.863V43.9355H257.682ZM255.787 39.4824C256.334 39.4824 256.809 39.5964 257.213 39.8242C257.623 40.0521 257.828 40.5046 257.828 41.1816C257.828 41.8392 257.623 42.2852 257.213 42.5195C256.809 42.7474 256.334 42.8613 255.787 42.8613C255.227 42.8613 254.749 42.7474 254.352 42.5195C253.961 42.2852 253.766 41.8392 253.766 41.1816C253.766 40.5046 253.961 40.0521 254.352 39.8242C254.749 39.5964 255.227 39.4824 255.787 39.4824ZM267.271 43.7402C268.411 43.7402 269.342 44.0625 270.064 44.707C270.787 45.3516 271.148 46.3835 271.148 47.8027V55H267.33V48.9648C267.33 48.2292 267.223 47.6758 267.008 47.3047C266.799 46.9271 266.461 46.7383 265.992 46.7383C265.27 46.7383 264.785 47.0345 264.537 47.627C264.29 48.2129 264.166 49.056 264.166 50.1562V55H260.348V43.9355H263.229L263.746 45.4004H263.893C264.127 45.0488 264.407 44.7493 264.732 44.502C265.058 44.2546 265.432 44.0658 265.855 43.9355C266.279 43.8053 266.751 43.7402 267.271 43.7402ZM277.184 55.1953C276.044 55.1953 275.107 54.7103 274.371 53.7402C273.635 52.7702 273.268 51.3509 273.268 49.4824C273.268 47.5944 273.645 46.1654 274.4 45.1953C275.156 44.2253 276.132 43.7402 277.33 43.7402C277.825 43.7402 278.251 43.8118 278.609 43.9551C278.967 44.0983 279.277 44.2936 279.537 44.541C279.804 44.7819 280.035 45.0553 280.23 45.3613H280.309C280.263 45.0814 280.221 44.6973 280.182 44.209C280.143 43.7142 280.123 43.2324 280.123 42.7637V39.8047H283.971V55H281.09L280.27 53.6035H280.123C279.947 53.8965 279.726 54.1634 279.459 54.4043C279.199 54.6452 278.88 54.8372 278.502 54.9805C278.131 55.1237 277.691 55.1953 277.184 55.1953ZM278.746 52.1777C279.358 52.1777 279.788 51.9857 280.035 51.6016C280.289 51.2109 280.426 50.6185 280.445 49.8242V49.5215C280.445 48.6491 280.322 47.9818 280.074 47.5195C279.833 47.0508 279.378 46.8164 278.707 46.8164C278.251 46.8164 277.874 47.0378 277.574 47.4805C277.275 47.9232 277.125 48.61 277.125 49.541C277.125 50.459 277.275 51.1296 277.574 51.5527C277.88 51.9694 278.271 52.1777 278.746 52.1777ZM297.184 49.4434C297.184 50.3678 297.057 51.1882 296.803 51.9043C296.549 52.6204 296.181 53.2227 295.699 53.7109C295.217 54.1992 294.635 54.5703 293.951 54.8242C293.268 55.0716 292.496 55.1953 291.637 55.1953C290.836 55.1953 290.1 55.0716 289.43 54.8242C288.766 54.5703 288.186 54.1992 287.691 53.7109C287.197 53.2227 286.812 52.6204 286.539 51.9043C286.272 51.1882 286.139 50.3678 286.139 49.4434C286.139 48.2194 286.36 47.1842 286.803 46.3379C287.252 45.4915 287.89 44.847 288.717 44.4043C289.55 43.9616 290.543 43.7402 291.695 43.7402C292.757 43.7402 293.701 43.9616 294.527 44.4043C295.354 44.847 296.002 45.4915 296.471 46.3379C296.946 47.1842 297.184 48.2194 297.184 49.4434ZM290.016 49.4434C290.016 50.0749 290.071 50.6087 290.182 51.0449C290.292 51.4746 290.468 51.8034 290.709 52.0312C290.956 52.2526 291.279 52.3633 291.676 52.3633C292.073 52.3633 292.389 52.2526 292.623 52.0312C292.857 51.8034 293.027 51.4746 293.131 51.0449C293.242 50.6087 293.297 50.0749 293.297 49.4434C293.297 48.8118 293.242 48.2845 293.131 47.8613C293.027 47.4382 292.854 47.1191 292.613 46.9043C292.379 46.6895 292.06 46.582 291.656 46.582C291.077 46.582 290.657 46.8229 290.396 47.3047C290.143 47.7865 290.016 48.4993 290.016 49.4434ZM308.893 55L307.73 50.1562C307.672 49.9089 307.613 49.6289 307.555 49.3164C307.496 48.9974 307.438 48.6784 307.379 48.3594C307.327 48.0404 307.281 47.7474 307.242 47.4805C307.203 47.2135 307.174 47.0052 307.154 46.8555H307.096C307.076 47.0052 307.044 47.2168 306.998 47.4902C306.952 47.7572 306.9 48.0534 306.842 48.3789C306.783 48.7044 306.718 49.0365 306.646 49.375C306.581 49.707 306.516 50.0163 306.451 50.3027L305.328 55H301.314L298.297 43.9355H302.057L302.955 48.1836C303.02 48.4961 303.085 48.8704 303.15 49.3066C303.222 49.7363 303.284 50.1758 303.336 50.625C303.395 51.0677 303.434 51.4648 303.453 51.8164H303.512C303.525 51.5495 303.554 51.2435 303.6 50.8984C303.652 50.5469 303.707 50.1986 303.766 49.8535C303.831 49.5085 303.889 49.2057 303.941 48.9453C303.993 48.6784 304.029 48.4961 304.049 48.3984L305.074 43.9355H309.293L310.23 48.457C310.289 48.7109 310.354 49.0365 310.426 49.4336C310.504 49.8242 310.576 50.2344 310.641 50.6641C310.712 51.0872 310.764 51.4714 310.797 51.8164H310.855C310.882 51.4583 310.921 51.0514 310.973 50.5957C311.025 50.14 311.083 49.6973 311.148 49.2676C311.22 48.8314 311.288 48.4701 311.354 48.1836L312.33 43.9355H316.012L312.975 55H308.893Z" fill="#60C17D"/>
<path d="M219.385 94.5448L216.631 103.987L210.093 94.3906L219.385 94.5448Z" fill="white" stroke="white" stroke-width="4" stroke-linecap="square"/>
<path d="M228.5 150.5L212.059 153.316L217 167" stroke="white" stroke-width="5" stroke-linecap="square"/>
<path d="M146.049 168.702L149 152.5L134.5 152" stroke="white" stroke-width="5" stroke-linecap="square"/>
<path d="M141.545 94.3642L151.349 93.5878L144.698 103.106L141.545 94.3642Z" fill="white" stroke="white" stroke-width="4" stroke-linecap="square"/>
<path d="M270.295 82.058L277.887 75.8057L270.295 70.4466" stroke="white" stroke-width="4" stroke-linecap="square"/>
<path d="M279.674 170.036L272.082 176.289L281.014 182.541" stroke="white" stroke-width="4" stroke-linecap="square"/>
<path d="M92.9989 70L85.4069 76.2523L94.3387 82.5045" stroke="white" stroke-width="4" stroke-linecap="square"/>
<path d="M83.6205 182.541L91.2125 176.289L82.7273 170.036" stroke="white" stroke-width="4" stroke-linecap="square"/>
<path d="M107.625 138L106.5 133.719H99.0781L97.9219 138H91.1406L98.5938 115.062H106.828L114.375 138H107.625ZM105.219 128.656L104.234 124.906C104.13 124.5 103.979 123.922 103.781 123.172C103.583 122.411 103.385 121.63 103.188 120.828C103 120.016 102.854 119.349 102.75 118.828C102.656 119.349 102.521 119.995 102.344 120.766C102.177 121.526 102 122.281 101.812 123.031C101.635 123.781 101.479 124.406 101.344 124.906L100.359 128.656H105.219ZM122 138.312C120.177 138.312 118.677 137.536 117.5 135.984C116.323 134.432 115.734 132.161 115.734 129.172C115.734 126.151 116.339 123.865 117.547 122.312C118.755 120.76 120.318 119.984 122.234 119.984C123.026 119.984 123.708 120.099 124.281 120.328C124.854 120.557 125.349 120.87 125.766 121.266C126.193 121.651 126.562 122.089 126.875 122.578H127C126.927 122.13 126.859 121.516 126.797 120.734C126.734 119.943 126.703 119.172 126.703 118.422V113.688H132.859V138H128.25L126.938 135.766H126.703C126.422 136.234 126.068 136.661 125.641 137.047C125.224 137.432 124.714 137.74 124.109 137.969C123.516 138.198 122.812 138.312 122 138.312ZM124.5 133.484C125.479 133.484 126.167 133.177 126.562 132.562C126.969 131.938 127.188 130.99 127.219 129.719V129.234C127.219 127.839 127.021 126.771 126.625 126.031C126.24 125.281 125.51 124.906 124.438 124.906C123.708 124.906 123.104 125.26 122.625 125.969C122.146 126.677 121.906 127.776 121.906 129.266C121.906 130.734 122.146 131.807 122.625 132.484C123.115 133.151 123.74 133.484 124.5 133.484ZM145.734 119.984C147.974 119.984 149.724 120.542 150.984 121.656C152.245 122.76 152.875 124.339 152.875 126.391V138H148.641L147.469 135.656H147.344C146.844 136.281 146.328 136.792 145.797 137.188C145.276 137.573 144.677 137.854 144 138.031C143.323 138.219 142.495 138.312 141.516 138.312C140.495 138.312 139.578 138.104 138.766 137.688C137.953 137.271 137.312 136.641 136.844 135.797C136.375 134.953 136.141 133.885 136.141 132.594C136.141 130.698 136.797 129.292 138.109 128.375C139.422 127.458 141.323 126.943 143.812 126.828L146.766 126.734V126.484C146.766 125.693 146.568 125.13 146.172 124.797C145.786 124.464 145.266 124.297 144.609 124.297C143.911 124.297 143.13 124.422 142.266 124.672C141.411 124.911 140.552 125.224 139.688 125.609L137.922 121.578C138.943 121.057 140.099 120.661 141.391 120.391C142.682 120.12 144.13 119.984 145.734 119.984ZM146.797 130.094L145.391 130.156C144.266 130.198 143.474 130.396 143.016 130.75C142.568 131.094 142.344 131.589 142.344 132.234C142.344 132.839 142.505 133.286 142.828 133.578C143.151 133.859 143.578 134 144.109 134C144.849 134 145.479 133.766 146 133.297C146.531 132.828 146.797 132.219 146.797 131.469V130.094ZM167.844 119.984C169.802 119.984 171.339 120.771 172.453 122.344C173.568 123.906 174.125 126.161 174.125 129.109C174.125 131.12 173.844 132.812 173.281 134.188C172.719 135.552 171.948 136.583 170.969 137.281C170 137.969 168.896 138.312 167.656 138.312C166.823 138.312 166.115 138.208 165.531 138C164.958 137.792 164.479 137.531 164.094 137.219C163.719 136.906 163.401 136.589 163.141 136.266H162.953C163.005 136.672 163.047 137.109 163.078 137.578C163.12 138.047 163.141 138.594 163.141 139.219V145.688H157.031V120.297H162L162.859 122.547H163.141C163.432 122.089 163.786 121.667 164.203 121.281C164.62 120.885 165.125 120.573 165.719 120.344C166.323 120.104 167.031 119.984 167.844 119.984ZM165.547 124.781C164.953 124.781 164.484 124.922 164.141 125.203C163.797 125.484 163.547 125.911 163.391 126.484C163.245 127.047 163.161 127.75 163.141 128.594V129.078C163.141 130.016 163.214 130.807 163.359 131.453C163.505 132.089 163.755 132.573 164.109 132.906C164.464 133.229 164.953 133.391 165.578 133.391C166.089 133.391 166.516 133.245 166.859 132.953C167.203 132.661 167.464 132.198 167.641 131.562C167.818 130.927 167.906 130.089 167.906 129.047C167.906 127.495 167.703 126.396 167.297 125.75C166.901 125.104 166.318 124.781 165.547 124.781ZM186.297 133.484C186.849 133.484 187.354 133.427 187.812 133.312C188.271 133.198 188.75 133.052 189.25 132.875V137.328C188.583 137.62 187.875 137.854 187.125 138.031C186.385 138.219 185.438 138.312 184.281 138.312C183.135 138.312 182.125 138.135 181.25 137.781C180.375 137.417 179.693 136.792 179.203 135.906C178.724 135.01 178.484 133.766 178.484 132.172V124.875H176.344V122.391L179.062 120.469L180.641 116.75H184.641V120.297H188.984V124.875H184.641V131.766C184.641 132.339 184.786 132.771 185.078 133.062C185.37 133.344 185.776 133.484 186.297 133.484ZM211.469 119.984C213.427 119.984 214.964 120.771 216.078 122.344C217.193 123.906 217.75 126.161 217.75 129.109C217.75 131.12 217.469 132.812 216.906 134.188C216.344 135.552 215.573 136.583 214.594 137.281C213.625 137.969 212.521 138.312 211.281 138.312C210.448 138.312 209.74 138.208 209.156 138C208.583 137.792 208.104 137.531 207.719 137.219C207.344 136.906 207.026 136.589 206.766 136.266H206.578C206.63 136.672 206.672 137.109 206.703 137.578C206.745 138.047 206.766 138.594 206.766 139.219V145.688H200.656V120.297H205.625L206.484 122.547H206.766C207.057 122.089 207.411 121.667 207.828 121.281C208.245 120.885 208.75 120.573 209.344 120.344C209.948 120.104 210.656 119.984 211.469 119.984ZM209.172 124.781C208.578 124.781 208.109 124.922 207.766 125.203C207.422 125.484 207.172 125.911 207.016 126.484C206.87 127.047 206.786 127.75 206.766 128.594V129.078C206.766 130.016 206.839 130.807 206.984 131.453C207.13 132.089 207.38 132.573 207.734 132.906C208.089 133.229 208.578 133.391 209.203 133.391C209.714 133.391 210.141 133.245 210.484 132.953C210.828 132.661 211.089 132.198 211.266 131.562C211.443 130.927 211.531 130.089 211.531 129.047C211.531 127.495 211.328 126.396 210.922 125.75C210.526 125.104 209.943 124.781 209.172 124.781ZM227.359 138H221.25V113.688H227.359V138ZM240.234 119.984C242.474 119.984 244.224 120.542 245.484 121.656C246.745 122.76 247.375 124.339 247.375 126.391V138H243.141L241.969 135.656H241.844C241.344 136.281 240.828 136.792 240.297 137.188C239.776 137.573 239.177 137.854 238.5 138.031C237.823 138.219 236.995 138.312 236.016 138.312C234.995 138.312 234.078 138.104 233.266 137.688C232.453 137.271 231.812 136.641 231.344 135.797C230.875 134.953 230.641 133.885 230.641 132.594C230.641 130.698 231.297 129.292 232.609 128.375C233.922 127.458 235.823 126.943 238.312 126.828L241.266 126.734V126.484C241.266 125.693 241.068 125.13 240.672 124.797C240.286 124.464 239.766 124.297 239.109 124.297C238.411 124.297 237.63 124.422 236.766 124.672C235.911 124.911 235.052 125.224 234.188 125.609L232.422 121.578C233.443 121.057 234.599 120.661 235.891 120.391C237.182 120.12 238.63 119.984 240.234 119.984ZM241.297 130.094L239.891 130.156C238.766 130.198 237.974 130.396 237.516 130.75C237.068 131.094 236.844 131.589 236.844 132.234C236.844 132.839 237.005 133.286 237.328 133.578C237.651 133.859 238.078 134 238.609 134C239.349 134 239.979 133.766 240.5 133.297C241.031 132.828 241.297 132.219 241.297 131.469V130.094ZM262.609 119.984C264.432 119.984 265.922 120.5 267.078 121.531C268.234 122.562 268.812 124.214 268.812 126.484V138H262.703V128.344C262.703 127.167 262.531 126.281 262.188 125.688C261.854 125.083 261.312 124.781 260.562 124.781C259.406 124.781 258.63 125.255 258.234 126.203C257.839 127.141 257.641 128.49 257.641 130.25V138H251.531V120.297H256.141L256.969 122.641H257.203C257.578 122.078 258.026 121.599 258.547 121.203C259.068 120.807 259.667 120.505 260.344 120.297C261.021 120.089 261.776 119.984 262.609 119.984Z" fill="#60C17D"/>
</svg>
