<svg width="360" height="250" viewBox="0 0 360 250" fill="none" xmlns="http://www.w3.org/2000/svg">
<rect width="360" height="250" fill="white"/>
<path d="M55.5 153L124 56L304 182L192 215L172 171" stroke="#5E69D0" stroke-width="8" stroke-linecap="round" stroke-linejoin="round"/>
<circle cx="123" cy="57" r="10" fill="#5E69D0"/>
<circle cx="123" cy="57" r="9" stroke="black" stroke-opacity="0.3" stroke-width="2"/>
<circle cx="302" cy="182" r="10" fill="#5E69D0"/>
<circle cx="302" cy="182" r="9" stroke="black" stroke-opacity="0.3" stroke-width="2"/>
<circle cx="191" cy="215" r="10" fill="#5E69D0"/>
<circle cx="191" cy="215" r="9" stroke="black" stroke-opacity="0.3" stroke-width="2"/>
<circle cx="171" cy="171" r="10" fill="#5E69D0"/>
<circle cx="171" cy="171" r="9" stroke="black" stroke-opacity="0.3" stroke-width="2"/>
<circle cx="55" cy="153" r="10" fill="#5E69D0"/>
<circle cx="55" cy="153" r="9" stroke="black" stroke-opacity="0.3" stroke-width="2"/>
<path d="M127 56L184 37.5" stroke="#5E69D0" stroke-width="3" stroke-linecap="round" stroke-linejoin="round" stroke-dasharray="4 12"/>
<path d="M250 57.5L196 37" stroke="#5E69D0" stroke-width="3" stroke-linecap="round" stroke-linejoin="round" stroke-dasharray="4 12"/>
<path d="M245.5 59.5L301 178" stroke="#5E69D0" stroke-width="3" stroke-linecap="round" stroke-linejoin="round" stroke-dasharray="4 12"/>
<path d="M132.5 149.5L168 169.5" stroke="#5E69D0" stroke-width="3" stroke-linecap="round" stroke-linejoin="round" stroke-dasharray="4 12"/>
<circle cx="190" cy="35" r="10" fill="white" stroke="#5E69D0" stroke-width="3" stroke-linecap="round" stroke-linejoin="round" stroke-dasharray="4 6"/>
<circle cx="243" cy="54" r="10" fill="white" stroke="#5E69D0" stroke-width="3" stroke-linecap="round" stroke-linejoin="round" stroke-dasharray="4 6"/>
<circle cx="127" cy="145" r="10" fill="white" stroke="#5E69D0" stroke-width="3" stroke-linecap="round" stroke-linejoin="round" stroke-dasharray="4 6"/>
</svg>
